<?xml version="1.0" encoding="UTF-8" standalone="no"?>
<!-- Created with Inkscape (http://www.inkscape.org/) -->

<svg
   xmlns:dc="http://purl.org/dc/elements/1.1/"
   xmlns:cc="http://creativecommons.org/ns#"
   xmlns:rdf="http://www.w3.org/1999/02/22-rdf-syntax-ns#"
   xmlns:svg="http://www.w3.org/2000/svg"
   xmlns="http://www.w3.org/2000/svg"
   xmlns:sodipodi="http://sodipodi.sourceforge.net/DTD/sodipodi-0.dtd"
   xmlns:inkscape="http://www.inkscape.org/namespaces/inkscape"
   width="62.909191"
   height="93.208389"
   id="svg2"
   version="1.1"
   inkscape:version="0.48.4 r9939"
   sodipodi:docname="bulb.svg">
  <defs
     id="defs4" />
  <sodipodi:namedview
     id="base"
     pagecolor="#ffffff"
     bordercolor="#666666"
     borderopacity="1.0"
     inkscape:pageopacity="0.0"
     inkscape:pageshadow="2"
     inkscape:zoom="1.979899"
     inkscape:cx="-21.69157"
     inkscape:cy="59.413774"
     inkscape:document-units="px"
     inkscape:current-layer="layer1"
     showgrid="false"
     inkscape:window-width="1680"
     inkscape:window-height="995"
     inkscape:window-x="0"
     inkscape:window-y="30"
     inkscape:window-maximized="1"
     fit-margin-top="0"
     fit-margin-left="0"
     fit-margin-right="0"
     fit-margin-bottom="0" />
  <metadata
     id="metadata7">
    <rdf:RDF>
      <cc:Work
         rdf:about="">
        <dc:format>image/svg+xml</dc:format>
        <dc:type
           rdf:resource="http://purl.org/dc/dcmitype/StillImage" />
        <dc:title></dc:title>
      </cc:Work>
    </rdf:RDF>
  </metadata>
  <g
     inkscape:label="Layer 1"
     inkscape:groupmode="layer"
     id="layer1"
     transform="translate(-46.617381,-940.32621)">
    <g
       id="g3864"
       transform="matrix(0.61199588,0,0,0.61199588,18.087736,401.01568)">
      <path
         inkscape:connector-curvature="0"
         id="path3833"
         d="m 85.042176,885.18712 -15.862855,7.32131 -12.405569,11.99883 -6.507832,15.45612 -2.033706,17.48981 4.474137,17.89656 10.575244,15.86285 10.168495,15.65949 3.253916,11.79546 7.524696,3.66065 34.166148,-1.627 8.94828,-23.18413 15.65948,-24.20102 4.47414,-24.81114 -6.91458,-21.76058 -13.82916,-14.84601 -17.69318,-7.52468 z"
         style="fill:#ffff00;stroke:none" />
      <path
         inkscape:connector-curvature="0"
         id="path3835"
         d="m 78.534344,1001.5147 -1.52528,11.6938 0.406737,10.1685 7.626375,3.4573 3.864032,0.6101 6.202785,4.4741 8.948277,-0.8135 5.28762,-5.0842 8.54154,-1.1185 2.33875,-7.5247 -1.42359,-16.9814 z"
         style="fill:#4caf50;fill-opacity:1;stroke:none" />
      <path
         style="fill:#4caf50;fill-opacity:1"
         inkscape:connector-curvature="0"
         d="m 98.010117,881.23229 c -28.33531,0 -51.392736,22.74792 -51.392736,50.70374 0,14.11114 5.87807,29.50877 15.771744,41.2676 0.13187,0.18033 0.234152,0.32027 0.331036,0.43871 3.50424,4.31704 10.733399,15.3761 10.733399,21.97277 0,1.34841 0.347196,2.67528 1.03889,3.93487 l 0.09145,0.3445 v 20.75622 c 0,4.3036 3.506927,7.8106 7.815894,7.8106 h 4.247069 l 2.050869,2.3684 c 1.485669,1.7225 3.638797,2.7049 5.915743,2.7049 h 6.812005 c 2.26348,0 4.41124,-0.9743 5.88883,-2.6887 l 2.06971,-2.3846 h 4.25783 c 4.30359,0 7.79706,-3.5097 7.79706,-7.8106 v -20.6082 c 0.85587,-1.39415 1.29456,-2.87982 1.29456,-4.42739 0,-6.00188 6.27372,-16.46074 10.72803,-21.98085 0.28528,-0.34451 0.55173,-0.73745 0.72129,-1.0685 9.53303,-11.73192 15.22808,-26.92231 15.22808,-40.62704 0,-27.95851 -23.05743,-50.70643 -51.400812,-50.70643 z m 15.629103,142.69391 h -6.33293 l -3.42349,3.951 c -0.61633,0.7132 -1.51527,1.1223 -2.45996,1.1223 h -6.811993 c -0.952769,0 -1.854391,-0.4091 -2.481488,-1.1357 l -3.412732,-3.9376 h -6.32215 c -1.808642,0 -3.28085,-1.4722 -3.28085,-3.2755 v -17.1955 l 0.449467,0.1265 c 0.837037,0.2261 1.52873,0.3284 2.185438,0.3284 h 32.687338 c 0.62172,0 1.27574,-0.086 2.02933,-0.2799 l 0.43871,-0.1158 v 17.1336 c 0.002,1.806 -1.46145,3.2782 -3.26469,3.2782 z M 84.407661,940.27944 c -0.344509,-4.83379 2.414203,-8.68253 5.345169,-12.76273 2.322695,-3.24316 4.715373,-6.57784 5.600846,-10.55038 12.229834,11.27437 23.722204,21.94856 13.543244,38.18054 -1.76018,-10.04978 -4.91723,-16.3208 -12.057575,-24.87683 l -0.446779,-0.54637 -3.240466,2.6995 0.449467,0.53829 c 7.899333,9.4792 10.464253,15.60757 11.944533,28.5237 0.0323,0.26377 0,0.55713 0.0243,0.82897 l -0.33105,-0.16148 C 100.5697,959.91337 85.258182,951.72876 84.407695,940.27944 z M 115.9,999.07359 c -0.4683,0.20455 -0.95814,0.29875 -1.46413,0.29875 H 98.427285 c 0.148031,-2.08047 2.715655,-8.21691 4.166325,-11.67539 3.56882,-8.51567 8.0043,-19.09835 7.13766,-26.69085 -0.16957,-1.43722 -0.34451,-2.77755 -0.54367,-4.07482 l 2.52724,1.64984 0.39026,-0.57865 c 12.76542,-19.56396 -1.42915,-32.64697 -13.960414,-44.19587 -1.071189,-0.98237 -2.131604,-1.97013 -3.181268,-2.95249 l -4.16901,-3.91871 0.629796,5.68966 c 0.511365,4.62118 -2.215049,8.41339 -5.102943,12.44245 -3.232402,4.50814 -6.572451,9.15623 -6.117608,15.51068 0.993141,13.34947 16.571095,22.19618 23.216217,25.37743 l 0.63518,0.29875 1.52335,-3.18127 c 0.0162,6.46481 -3.75723,15.56721 -6.887352,23.02783 -2.62683,6.27371 -4.306279,10.45887 -4.424699,13.27411 H 81.745844 c -2.07778,0 -3.762615,-1.68484 -3.762615,-3.75723 0,-9.5734 -10.536921,-23.29159 -11.737303,-24.82569 l -0.384871,-0.51138 c -9.212743,-10.93525 -14.711318,-25.26978 -14.711318,-38.34202 0,-25.45549 21.020019,-46.1633 46.857692,-46.1633 25.845741,0 46.863071,20.70781 46.863071,46.1633 0,12.80041 -5.33441,26.92231 -14.313,37.86564 l -0.30683,0.49253 c -0.0377,0.0942 -0.16148,0.29067 -0.32296,0.49791 -3.25931,4.03983 -11.73191,16.35848 -11.73191,24.8257 0,1.5045 -0.90164,2.86637 -2.2958,3.45309 z"
         id="path3824" />
    </g>
  </g>
</svg>
