<?xml version="1.0" encoding="UTF-8" standalone="no"?>
<!-- Created with Inkscape (http://www.inkscape.org/) -->

<svg
   xmlns:dc="http://purl.org/dc/elements/1.1/"
   xmlns:cc="http://creativecommons.org/ns#"
   xmlns:rdf="http://www.w3.org/1999/02/22-rdf-syntax-ns#"
   xmlns:svg="http://www.w3.org/2000/svg"
   xmlns="http://www.w3.org/2000/svg"
   xmlns:sodipodi="http://sodipodi.sourceforge.net/DTD/sodipodi-0.dtd"
   xmlns:inkscape="http://www.inkscape.org/namespaces/inkscape"
   width="992.77789"
   height="500"
   id="svg2"
   version="1.1"
   inkscape:version="0.48.4 r9939"
   sodipodi:docname="drawing2.svg">
  <defs
     id="defs4">
    <filter
       inkscape:collect="always"
       id="filter4043">
      <feGaussianBlur
         inkscape:collect="always"
         stdDeviation="1.8395313"
         id="feGaussianBlur4045" />
    </filter>
  </defs>
  <sodipodi:namedview
     id="base"
     pagecolor="#ffffff"
     bordercolor="#666666"
     borderopacity="1.0"
     inkscape:pageopacity="0.0"
     inkscape:pageshadow="2"
     inkscape:zoom="2.8284271"
     inkscape:cx="206.87298"
     inkscape:cy="278.98138"
     inkscape:document-units="px"
     inkscape:current-layer="layer1"
     showgrid="false"
     height="500px"
     fit-margin-top="0"
     fit-margin-left="0"
     fit-margin-right="0"
     fit-margin-bottom="0"
     showguides="true"
     inkscape:guide-bbox="true"
     inkscape:window-width="1680"
     inkscape:window-height="995"
     inkscape:window-x="0"
     inkscape:window-y="30"
     inkscape:window-maximized="1">
    <sodipodi:guide
       orientation="1,0"
       position="992.77792,114.72806"
       id="guide2987" />
    <sodipodi:guide
       orientation="0,1"
       position="963.43299,-0.17678914"
       id="guide2989" />
    <sodipodi:guide
       orientation="1,0"
       position="-1.9999963e-08,58.866626"
       id="guide2991" />
  </sodipodi:namedview>
  <metadata
     id="metadata7">
    <rdf:RDF>
      <cc:Work
         rdf:about="">
        <dc:format>image/svg+xml</dc:format>
        <dc:type
           rdf:resource="http://purl.org/dc/dcmitype/StillImage" />
        <dc:title></dc:title>
      </cc:Work>
    </rdf:RDF>
  </metadata>
  <g
     inkscape:label="Layer 1"
     inkscape:groupmode="layer"
     id="layer1"
     transform="translate(-5.9527211,-549.43274)">
    <path
       style="fill:#00ccff;stroke:none"
       d="M 5.9527211,798.52773 C 92.931336,854.47883 182.63375,681.92368 285.87317,675.80592 c 95.2672,-5.64535 178.93537,72.99642 273.75134,83.84266 62.70919,7.17346 128.50664,-31.48192 188.89853,-13.13199 101.4975,30.83976 154.83535,235.10968 250.2076,188.66658 0,-102.38357 0,-385.74734 0,-385.74734 l -992.7779189,0 c 0,0 0.6361191,170.53497 0,249.0919 z"
       id="path2985"
       inkscape:connector-curvature="0"
       sodipodi:nodetypes="cccccccc" />
    <path
       sodipodi:type="arc"
       style="fill:#ffffff;fill-opacity:1;stroke:none"
       id="path3223"
       sodipodi:cx="75"
       sodipodi:cy="67"
       sodipodi:rx="25"
       sodipodi:ry="33"
       d="m 100,67 a 25,33 0 1 1 -50,0 25,33 0 1 1 50,0 z"
       transform="matrix(2.68,0,0,0.84848485,-78.047279,564.58426)" />
    <path
       transform="matrix(0.96464286,0,0,0.55303031,18.488435,557.62971)"
       d="m 100,67 a 25,33 0 1 1 -50,0 25,33 0 1 1 50,0 z"
       sodipodi:ry="33"
       sodipodi:rx="25"
       sodipodi:cy="67"
       sodipodi:cx="75"
       id="path3993"
       style="fill:#ffffff;fill-opacity:1;stroke:none"
       sodipodi:type="arc" />
    <path
       sodipodi:type="arc"
       style="fill:#ffffff;fill-opacity:1;stroke:none"
       id="path3995"
       sodipodi:cx="75"
       sodipodi:cy="67"
       sodipodi:rx="25"
       sodipodi:ry="33"
       d="m 100,67 a 25,33 0 1 1 -50,0 25,33 0 1 1 50,0 z"
       transform="matrix(0.96464286,0,0,0.55303031,40.988435,536.62971)" />
    <path
       transform="matrix(0.96464286,0,0,0.55303031,52.988435,563.62971)"
       d="m 100,67 a 25,33 0 1 1 -50,0 25,33 0 1 1 50,0 z"
       sodipodi:ry="33"
       sodipodi:rx="25"
       sodipodi:cy="67"
       sodipodi:cx="75"
       id="path3997"
       style="fill:#ffffff;fill-opacity:1;stroke:none"
       sodipodi:type="arc" />
    <path
       sodipodi:type="arc"
       style="fill:#ffffff;fill-opacity:1;stroke:none"
       id="path3999"
       sodipodi:cx="75"
       sodipodi:cy="67"
       sodipodi:rx="25"
       sodipodi:ry="33"
       d="m 100,67 a 25,33 0 1 1 -50,0 25,33 0 1 1 50,0 z"
       transform="matrix(0.96464286,0,0,0.55303031,52.988435,563.62971)" />
    <g
       id="g4029"
       style="fill:#1a1a1a;filter:url(#filter4043)">
      <path
         transform="matrix(1.2146429,0,0,0.6439394,857.98843,566.0388)"
         d="m 100,67 a 25,33 0 1 1 -50,0 25,33 0 1 1 50,0 z"
         sodipodi:ry="33"
         sodipodi:rx="25"
         sodipodi:cy="67"
         sodipodi:cx="75"
         id="path4031"
         style="fill:#1a1a1a;fill-opacity:1;stroke:none"
         sodipodi:type="arc" />
      <path
         sodipodi:type="arc"
         style="fill:#1a1a1a;fill-opacity:1;stroke:none"
         id="path4033"
         sodipodi:cx="75"
         sodipodi:cy="67"
         sodipodi:rx="25"
         sodipodi:ry="33"
         d="m 100,67 a 25,33 0 1 1 -50,0 25,33 0 1 1 50,0 z"
         transform="matrix(1.4289916,0,0,0.75757576,795.77099,540.17516)" />
      <path
         transform="matrix(1.4289916,0,0,0.75757576,777.27099,569.67516)"
         d="m 100,67 a 25,33 0 1 1 -50,0 25,33 0 1 1 50,0 z"
         sodipodi:ry="33"
         sodipodi:rx="25"
         sodipodi:cy="67"
         sodipodi:cx="75"
         id="path4035"
         style="fill:#1a1a1a;fill-opacity:1;stroke:none"
         sodipodi:type="arc" />
      <path
         sodipodi:type="arc"
         style="fill:#1a1a1a;fill-opacity:1;stroke:none"
         id="path4037"
         sodipodi:cx="75"
         sodipodi:cy="67"
         sodipodi:rx="25"
         sodipodi:ry="33"
         d="m 100,67 a 25,33 0 1 1 -50,0 25,33 0 1 1 50,0 z"
         transform="matrix(1.0860336,0,0,0.57575758,854.06679,585.35698)" />
    </g>
    <g
       id="g4023">
      <path
         sodipodi:type="arc"
         style="fill:#ffffff;fill-opacity:1;stroke:none"
         id="path4001"
         sodipodi:cx="75"
         sodipodi:cy="67"
         sodipodi:rx="25"
         sodipodi:ry="33"
         d="m 100,67 a 25,33 0 1 1 -50,0 25,33 0 1 1 50,0 z"
         transform="matrix(1.2146429,0,0,0.6439394,857.98843,566.0388)" />
      <path
         transform="matrix(1.4289916,0,0,0.75757576,795.77099,540.17516)"
         d="m 100,67 a 25,33 0 1 1 -50,0 25,33 0 1 1 50,0 z"
         sodipodi:ry="33"
         sodipodi:rx="25"
         sodipodi:cy="67"
         sodipodi:cx="75"
         id="path4006"
         style="fill:#ffffff;fill-opacity:1;stroke:none"
         sodipodi:type="arc" />
      <path
         sodipodi:type="arc"
         style="fill:#ffffff;fill-opacity:1;stroke:none"
         id="path4019"
         sodipodi:cx="75"
         sodipodi:cy="67"
         sodipodi:rx="25"
         sodipodi:ry="33"
         d="m 100,67 a 25,33 0 1 1 -50,0 25,33 0 1 1 50,0 z"
         transform="matrix(1.4289916,0,0,0.75757576,777.27099,569.67516)" />
      <path
         transform="matrix(1.0860336,0,0,0.57575758,854.06679,585.35698)"
         d="m 100,67 a 25,33 0 1 1 -50,0 25,33 0 1 1 50,0 z"
         sodipodi:ry="33"
         sodipodi:rx="25"
         sodipodi:cy="67"
         sodipodi:cx="75"
         id="path4021"
         style="fill:#ffffff;fill-opacity:1;stroke:none"
         sodipodi:type="arc" />
    </g>
    <g
       transform="matrix(0.48691616,-5.0642108e-4,5.0642108e-4,0.48691616,-109.51957,698.28265)"
       id="layer1-8"
       inkscape:label="Layer 1">
      <g
         id="g4110">
        <g
           id="g4082">
          <path
             style="fill:#b3b3b3;fill-opacity:1;stroke:none"
             d="m 305.69296,239.34857 27,0 -0.0312,98.1875 c 0,0 -8.9584,0.79769 -13.46246,0.6875 -4.53352,0.14073 -13.50629,-0.375 -13.50629,-0.375 z"
             id="rect4078"
             inkscape:connector-curvature="0"
             sodipodi:nodetypes="cccccc" />
          <path
             style="fill:#ececec;fill-opacity:1;stroke:none"
             d="m 310.19296,255.34857 8.5,0 0,82.88389 -3.93445,-0.007 -4.56555,-0.16987 z"
             id="rect4080"
             inkscape:connector-curvature="0"
             sodipodi:nodetypes="cccccc" />
        </g>
        <rect
           style="fill:#e3dbdb;fill-opacity:1;stroke:none"
           id="rect4088"
           width="66.114487"
           height="9.5459414"
           x="285.4469"
           y="284.25488"
           ry="4.7729707" />
        <rect
           style="fill:#e3dbdb;fill-opacity:1;stroke:none"
           id="rect3990"
           width="82"
           height="81.369232"
           x="276.69296"
           y="186.16396"
           ry="18.292307" />
        <rect
           y="206.97934"
           x="285.52371"
           height="81.369232"
           width="66.230766"
           id="rect3992"
           style="fill:#e3dbdb;fill-opacity:1;stroke:none" />
        <g
           id="g4010"
           transform="matrix(0.63076923,0,0,0.63076923,-276.47938,76.19024)">
          <rect
             ry="8"
             style="fill:#666666;fill-opacity:1;stroke:none"
             id="rect4000"
             width="16"
             height="99.5"
             x="970.48053"
             y="78.598572" />
          <rect
             ry="3.625"
             y="79.848572"
             x="972.98053"
             height="99.5"
             width="7.25"
             id="rect4008"
             style="fill:#e3e2db;fill-opacity:1;stroke:none" />
        </g>
        <g
           id="g4014"
           transform="matrix(0.63076923,0,0,0.63076923,-324.57553,76.347932)">
          <rect
             y="78.598572"
             x="970.48053"
             height="99.5"
             width="16"
             id="rect4016"
             style="fill:#666666;fill-opacity:1;stroke:none"
             ry="8" />
          <rect
             style="fill:#e3e2db;fill-opacity:1;stroke:none"
             id="rect4018"
             width="7.25"
             height="99.5"
             x="972.98053"
             y="79.848572"
             ry="3.625" />
        </g>
        <rect
           style="fill:#e3dbdb;fill-opacity:1;stroke:none"
           id="rect3994"
           width="81.954399"
           height="65.089462"
           x="276.70032"
           y="182.88989" />
        <rect
           style="fill:#f2f2f2;fill-opacity:1;stroke:none"
           id="rect4020"
           width="6.3076925"
           height="64.653847"
           x="279.5314"
           y="185.53319"
           ry="0" />
        <rect
           ry="0"
           y="264.7074"
           x="288.56335"
           height="26.956896"
           width="6.3076925"
           id="rect4022"
           style="fill:#f2f2f2;fill-opacity:1;stroke:none" />
        <path
           style="fill:#f2f2f2;fill-opacity:1;stroke:none"
           d="m 279.52937,250.18007 6.30247,6.3e-4 c 0,0 0.57822,4.96371 1.76566,7.09023 1.69304,3.03198 7.28565,7.44668 7.28565,7.44668 l -6.28942,-0.0116 c 0,0 -4.57916,-3.92025 -6.14056,-6.44295 -1.50787,-2.43622 -2.9238,-8.08275 -2.9238,-8.08275 z"
           id="rect4024"
           inkscape:connector-curvature="0"
           sodipodi:nodetypes="ccaccacc" />
      </g>
    </g>
  </g>
</svg>
