<?xml version="1.0" encoding="UTF-8" standalone="no"?>
<!-- Created with Inkscape (http://www.inkscape.org/) -->

<svg
   xmlns:dc="http://purl.org/dc/elements/1.1/"
   xmlns:cc="http://creativecommons.org/ns#"
   xmlns:rdf="http://www.w3.org/1999/02/22-rdf-syntax-ns#"
   xmlns:svg="http://www.w3.org/2000/svg"
   xmlns="http://www.w3.org/2000/svg"
   xmlns:sodipodi="http://sodipodi.sourceforge.net/DTD/sodipodi-0.dtd"
   xmlns:inkscape="http://www.inkscape.org/namespaces/inkscape"
   width="99.574623"
   height="163.67398"
   id="svg2"
   version="1.1"
   inkscape:version="0.48.4 r9939"
   sodipodi:docname="New document 1">
  <defs
     id="defs4" />
  <sodipodi:namedview
     id="base"
     pagecolor="#ffffff"
     bordercolor="#666666"
     borderopacity="1.0"
     inkscape:pageopacity="0.0"
     inkscape:pageshadow="2"
     inkscape:zoom="1.4"
     inkscape:cx="18.79422"
     inkscape:cy="211.89143"
     inkscape:document-units="px"
     inkscape:current-layer="layer1"
     showgrid="false"
     inkscape:window-width="1680"
     inkscape:window-height="995"
     inkscape:window-x="0"
     inkscape:window-y="30"
     inkscape:window-maximized="1"
     fit-margin-top="0"
     fit-margin-left="0"
     fit-margin-right="0"
     fit-margin-bottom="0" />
  <metadata
     id="metadata7">
    <rdf:RDF>
      <cc:Work
         rdf:about="">
        <dc:format>image/svg+xml</dc:format>
        <dc:type
           rdf:resource="http://purl.org/dc/dcmitype/StillImage" />
        <dc:title></dc:title>
      </cc:Work>
    </rdf:RDF>
  </metadata>
  <g
     inkscape:label="Layer 1"
     inkscape:groupmode="layer"
     id="layer1"
     transform="translate(-46.428155,-870.85229)">
    <g
       id="g2986"
       transform="matrix(5.6715055,0,0,5.6715055,-10.343615,851.46141)"
       style="fill:#4caf50;fill-opacity:1">
      <path
         id="path2988"
         d="m 18.45,16.575 v 1.104 7.911 h 0.8 v -7.911 -1.104 c 1.881,-0.398 3.713,-3.393 3.713,-3.393 V 9.273 c 0,-0.757 -0.526,-1.386 -1.232,-1.553 V 4.318 c 0,-0.496 -0.402,-0.899 -0.898,-0.899 -0.497,0 -0.9,0.403 -0.9,0.899 V 7.674 H 17.469 V 4.318 c 0,-0.496 -0.403,-0.899 -0.899,-0.899 -0.496,0 -0.898,0.403 -0.898,0.899 v 3.506 c -0.55,0.253 -0.934,0.805 -0.934,1.449 v 3.908 c -0.002,0.001 1.83,3.001 3.712,3.394 z"
         style="fill:#4caf50;fill-opacity:1"
         inkscape:connector-curvature="0" />
      <path
         id="path2990"
         d="m 27.394,17.598 c -0.108,-0.045 -0.282,-0.136 -0.488,-0.19 -0.207,-0.059 -0.486,-0.155 -0.771,-0.181 -0.288,-0.029 -0.612,-0.038 -0.968,-0.021 -0.348,0.027 -0.699,0.102 -1.076,0.199 -0.379,0.098 -0.724,0.26 -1.092,0.438 -0.359,0.184 -0.688,0.412 -1.016,0.661 -0.311,0.258 -0.604,0.542 -0.874,0.846 -0.251,0.311 -0.501,0.631 -0.692,0.973 -0.199,0.339 -0.369,0.688 -0.493,1.046 -0.265,0.706 -0.37,1.435 -0.381,2.083 0.001,0.328 0.021,0.633 0.062,0.914 0.035,0.278 0.104,0.535 0.158,0.744 0.022,0.098 0.053,0.191 0.083,0.273 0.053,-0.111 0.11,-0.229 0.175,-0.357 0.319,-0.633 0.784,-1.457 1.328,-2.229 0.271,-0.386 0.568,-0.754 0.859,-1.086 0.152,-0.159 0.301,-0.313 0.441,-0.459 0.15,-0.136 0.293,-0.264 0.423,-0.382 0.142,-0.106 0.271,-0.203 0.386,-0.289 0.109,-0.091 0.225,-0.144 0.311,-0.199 0.176,-0.104 0.276,-0.164 0.276,-0.164 0,0 -0.096,0.068 -0.263,0.186 -0.082,0.062 -0.189,0.122 -0.292,0.221 -0.106,0.094 -0.226,0.199 -0.356,0.314 -0.119,0.126 -0.249,0.263 -0.387,0.407 -0.125,0.153 -0.258,0.315 -0.396,0.483 -0.259,0.349 -0.52,0.73 -0.754,1.129 -0.473,0.795 -0.861,1.635 -1.124,2.274 -0.04,0.1 -0.077,0.191 -0.11,0.279 l 0.529,0.021 c 0.156,-0.049 0.322,-0.103 0.492,-0.172 0.249,-0.096 0.516,-0.208 0.784,-0.337 0.272,-0.126 0.538,-0.275 0.812,-0.432 0.271,-0.156 0.529,-0.334 0.785,-0.518 0.248,-0.19 0.495,-0.383 0.72,-0.597 0.221,-0.219 0.444,-0.424 0.638,-0.661 0.398,-0.456 0.736,-0.942 1.013,-1.457 0.144,-0.242 0.263,-0.524 0.38,-0.778 0.119,-0.254 0.219,-0.534 0.319,-0.791 0.101,-0.253 0.194,-0.509 0.276,-0.758 0.09,-0.257 0.168,-0.48 0.233,-0.664 0.074,-0.183 0.121,-0.374 0.163,-0.486 0.039,-0.127 0.06,-0.194 0.06,-0.194 0,0 -0.062,-0.039 -0.173,-0.089 z"
         style="fill:#4caf50;fill-opacity:1"
         inkscape:connector-curvature="0" />
      <path
         id="path2992"
         d="m 17.104,25.23 c -0.263,-0.64 -0.651,-1.479 -1.124,-2.274 -0.234,-0.398 -0.495,-0.78 -0.754,-1.129 -0.139,-0.168 -0.271,-0.33 -0.396,-0.483 -0.138,-0.145 -0.268,-0.281 -0.387,-0.407 -0.131,-0.115 -0.25,-0.221 -0.356,-0.314 -0.103,-0.099 -0.21,-0.159 -0.292,-0.221 -0.167,-0.117 -0.263,-0.186 -0.263,-0.186 0,0 0.101,0.06 0.276,0.164 0.086,0.056 0.201,0.108 0.311,0.199 0.115,0.086 0.244,0.183 0.386,0.289 0.13,0.118 0.272,0.246 0.423,0.382 0.141,0.146 0.289,0.3 0.441,0.459 0.291,0.332 0.588,0.7 0.859,1.086 0.544,0.772 1.009,1.597 1.328,2.229 0.064,0.128 0.122,0.246 0.175,0.357 0.03,-0.082 0.061,-0.176 0.083,-0.273 0.054,-0.209 0.123,-0.466 0.158,-0.744 0.041,-0.281 0.061,-0.586 0.062,-0.914 -0.011,-0.648 -0.116,-1.377 -0.381,-2.083 -0.124,-0.357 -0.294,-0.707 -0.493,-1.046 -0.191,-0.342 -0.441,-0.662 -0.692,-0.973 -0.27,-0.304 -0.563,-0.588 -0.874,-0.846 -0.328,-0.249 -0.656,-0.478 -1.016,-0.661 -0.368,-0.178 -0.713,-0.34 -1.092,-0.438 -0.377,-0.098 -0.729,-0.172 -1.076,-0.199 -0.355,-0.017 -0.68,-0.008 -0.968,0.021 -0.284,0.025 -0.563,0.122 -0.771,0.181 -0.206,0.055 -0.38,0.146 -0.488,0.19 -0.111,0.051 -0.173,0.088 -0.173,0.088 0,0 0.021,0.067 0.06,0.194 0.042,0.112 0.089,0.304 0.163,0.486 0.065,0.184 0.144,0.407 0.233,0.664 0.082,0.249 0.176,0.505 0.276,0.758 0.101,0.257 0.2,0.537 0.319,0.791 0.117,0.254 0.236,0.536 0.38,0.778 0.276,0.515 0.614,1.001 1.013,1.457 0.193,0.237 0.417,0.442 0.638,0.661 0.225,0.214 0.472,0.406 0.72,0.597 0.256,0.184 0.514,0.361 0.785,0.518 0.273,0.156 0.539,0.306 0.812,0.432 0.269,0.129 0.535,0.241 0.784,0.337 0.17,0.069 0.336,0.123 0.492,0.172 l 0.529,-0.021 c -0.033,-0.086 -0.07,-0.178 -0.11,-0.278 z"
         style="fill:#4caf50;fill-opacity:1"
         inkscape:connector-curvature="0" />
      <path
         id="path2994"
         d="m 13.869,26.911 c -0.736,0 -1.315,0.241 -1.737,0.726 -0.421,0.484 -0.632,1.149 -0.632,1.995 0,0.824 0.227,1.472 0.682,1.941 0.454,0.47 1.084,0.705 1.89,0.705 0.353,0 0.667,-0.026 0.941,-0.08 0.274,-0.053 0.546,-0.144 0.815,-0.271 v -0.895 c -0.304,0.135 -0.587,0.23 -0.851,0.288 -0.265,0.058 -0.549,0.087 -0.854,0.087 -0.466,0 -0.826,-0.136 -1.082,-0.405 -0.256,-0.271 -0.393,-0.656 -0.408,-1.159 h 3.452 v -0.595 c 0,-0.728 -0.198,-1.299 -0.595,-1.715 -0.397,-0.415 -0.937,-0.622 -1.621,-0.622 z m -1.217,2.136 c 0.04,-0.425 0.166,-0.748 0.377,-0.97 0.211,-0.222 0.49,-0.333 0.84,-0.333 0.35,0 0.625,0.11 0.824,0.33 0.201,0.221 0.304,0.545 0.31,0.973 h -2.351 z"
         style="fill:#4caf50;fill-opacity:1"
         inkscape:connector-curvature="0" />
      <path
         id="path2996"
         d="m 19.264,27.829 c 0.303,0 0.687,0.09 1.151,0.271 l 0.333,-0.886 c -0.437,-0.203 -0.929,-0.304 -1.476,-0.304 -0.805,0 -1.421,0.233 -1.848,0.702 -0.426,0.469 -0.639,1.138 -0.639,2.009 0,0.856 0.203,1.513 0.611,1.97 0.407,0.458 1.002,0.687 1.787,0.687 0.318,0 0.589,-0.025 0.813,-0.075 0.223,-0.05 0.433,-0.133 0.629,-0.248 v -0.96 c -0.437,0.243 -0.9,0.365 -1.391,0.365 -0.431,0 -0.758,-0.146 -0.981,-0.438 -0.223,-0.292 -0.335,-0.728 -0.335,-1.309 0.001,-1.189 0.45,-1.784 1.346,-1.784 z"
         style="fill:#4caf50;fill-opacity:1"
         inkscape:connector-curvature="0" />
      <path
         id="path2998"
         d="m 23.763,26.911 c -0.783,0 -1.391,0.235 -1.821,0.707 -0.43,0.472 -0.646,1.127 -0.646,1.967 0,0.54 0.101,1.015 0.3,1.424 0.199,0.409 0.485,0.723 0.857,0.941 0.371,0.219 0.799,0.328 1.283,0.328 0.774,0 1.379,-0.237 1.813,-0.712 0.434,-0.475 0.65,-1.135 0.65,-1.981 0,-0.818 -0.219,-1.468 -0.655,-1.95 -0.436,-0.482 -1.031,-0.724 -1.781,-0.724 z m -0.009,4.468 c -0.884,0 -1.325,-0.598 -1.325,-1.794 0,-0.571 0.104,-1.01 0.311,-1.316 0.209,-0.306 0.543,-0.459 1.006,-0.459 0.88,0 1.32,0.592 1.32,1.775 0,1.196 -0.438,1.794 -1.312,1.794 z"
         style="fill:#4caf50;fill-opacity:1"
         inkscape:connector-curvature="0" />
    </g>
  </g>
</svg>
